<svg width="25" height="14" viewBox="0 0 25 14" fill="none" xmlns="http://www.w3.org/2000/svg">
  <path d="M20.1822 14C18.5533 14 17.174 13.6847 16.0443 13.0542C14.9145 12.4105 14.0673 11.5632 13.5024 10.5123C12.9507 9.44825 12.6748 8.29225 12.6748 7.0443C12.6748 5.80949 12.9638 4.66663 13.5418 3.61572C14.1329 2.56482 15.0065 1.72409 16.1625 1.09355C17.3185 0.463007 18.7109 0.147736 20.3398 0.147736C21.8637 0.147736 23.2036 0.443303 24.3596 1.03444L23.6502 3.5172C23.1642 3.26761 22.6584 3.07057 22.133 2.92607C21.6075 2.76843 21.0098 2.68961 20.3398 2.68961C19.486 2.68961 18.7438 2.88666 18.1132 3.28075C17.4958 3.6617 17.0229 4.18715 16.6945 4.8571C16.3792 5.51392 16.2216 6.24955 16.2216 7.06401C16.2216 8.35136 16.5632 9.40884 17.2462 10.2364C17.9293 11.0509 18.908 11.4581 20.1822 11.4581C21.2725 11.4581 22.4482 11.1888 23.7093 10.6502L24.3793 13.0739C23.8407 13.3497 23.197 13.573 22.4482 13.7438C21.6995 13.9146 20.9441 14 20.1822 14Z" fill="#3470FF" />
  <path d="M5.43843 8.47292H3.5468V13.399H0V0H5.35962C7.27752 0 8.67654 0.328408 9.55667 0.985223C10.4368 1.6289 10.8769 2.64697 10.8769 4.03942C10.8769 5.85223 10.2135 7.06734 8.88672 7.68474L12.6503 13.399H8.55174L5.43843 8.47292ZM3.5468 6.00986H5.35962C6.05584 6.00986 6.55502 5.86536 6.85716 5.57636C7.17243 5.28737 7.33006 4.84073 7.33006 4.23646C7.33006 3.60592 7.179 3.15272 6.87686 2.87685C6.57472 2.60099 6.06898 2.46306 5.35962 2.46306H3.5468V6.00986Z" fill="#101828" />
</svg>